HIERARCHY
ROOT Hips
{
	OFFSET 0.000000 0.000000 0.000000
	CHANNELS 6 Xposition Yposition Zposition Xrotation Yrotation Zrotation
	JOINT LeftUpLeg_virtual
	{
		OFFSET 0.000000 0.000000 0.000000
		CHANNELS 3 Xrotation Yrotation Zrotation
		JOINT LeftUpLeg
		{
			OFFSET 13.026900 -6.336304 -1.092800
			CHANNELS 3 Xrotation Yrotation Zrotation
			JOINT LeftLeg
			{
				OFFSET 0.524474 -46.096886 9.782700
				CHANNELS 3 Xrotation Yrotation Zrotation
				JOINT LeftFoot
				{
					OFFSET -0.524474 -53.427422 -12.948200
					CHANNELS 3 Xrotation Yrotation Zrotation
					JOINT LeftToeBase
					{
						OFFSET 0.192200 -14.009700 16.364100
						CHANNELS 3 Xrotation Yrotation Zrotation
						JOINT LeftToe_End
						{
							OFFSET -1.784700 -0.561700 9.474800
							CHANNELS 3 Xrotation Yrotation Zrotation
							End Site
							{
								OFFSET 0 0 0
							}
						}
					}
				}
			}
		}
	}
	JOINT RightUpLeg_virtual
	{
		OFFSET 0.000000 0.000000 0.000000
		CHANNELS 3 Xrotation Yrotation Zrotation
		JOINT RightUpLeg
		{
			OFFSET -12.883000 -6.336304 -1.092800
			CHANNELS 3 Xrotation Yrotation Zrotation
			JOINT RightLeg
			{
				OFFSET -0.524587 -46.096825 9.782800
				CHANNELS 3 Xrotation Yrotation Zrotation
				JOINT RightFoot
				{
					OFFSET 0.524587 -53.427383 -12.948300
					CHANNELS 3 Xrotation Yrotation Zrotation
					JOINT RightToeBase
					{
						OFFSET -0.192200 -14.009700 16.364100
						CHANNELS 3 Xrotation Yrotation Zrotation
						JOINT RightToe_End
						{
							OFFSET 1.784700 -0.561700 9.474800
							CHANNELS 3 Xrotation Yrotation Zrotation
							End Site
							{
								OFFSET 0 0 0
							}
						}
					}
				}
			}
		}
	}
	JOINT Spine_virtual
	{
		OFFSET 0.000000 0.000000 0.000000
		CHANNELS 3 Xrotation Yrotation Zrotation
		JOINT Spine
		{
			OFFSET 0.072000 7.257294 -0.789700
			CHANNELS 3 Xrotation Yrotation Zrotation
			JOINT Spine1
			{
				OFFSET 0.000000 12.508769 -0.658067
				CHANNELS 3 Xrotation Yrotation Zrotation
				JOINT Spine1_split
				{
					OFFSET 0.000000 12.508769 -0.658067
					CHANNELS 3 Xrotation Yrotation Zrotation
					JOINT Spine2
					{
						OFFSET 0.000000 12.508769 -0.658067
						CHANNELS 3 Xrotation Yrotation Zrotation
						JOINT Neck_virtual
						{
							OFFSET 0.000000 0.000000 0.000000
							CHANNELS 3 Xrotation Yrotation Zrotation
							JOINT Neck
							{
								OFFSET 0.000000 14.033295 7.520400
								CHANNELS 3 Xrotation Yrotation Zrotation
								JOINT Head
								{
									OFFSET 0.000000 8.198502 5.703100
									CHANNELS 3 Xrotation Yrotation Zrotation
									JOINT HeadTop_End
									{
										OFFSET 0.000000 17.760803 13.332701
										CHANNELS 3 Xrotation Yrotation Zrotation
										End Site
										{
											OFFSET 0 0 0
										}
									}
								}
							}
						}
						JOINT LeftShoulder_virtual
						{
							OFFSET 0.000000 0.000000 0.000000
							CHANNELS 3 Xrotation Yrotation Zrotation
							JOINT LeftShoulder
							{
								OFFSET 6.292450 5.785301 -0.669000
								CHANNELS 3 Xrotation Yrotation Zrotation
								JOINT LeftShoulder_split
								{
									OFFSET 6.292450 5.785301 -0.669000
									CHANNELS 3 Xrotation Yrotation Zrotation
									JOINT LeftArm
									{
										OFFSET 13.907140 -6.093903 1.965100
										CHANNELS 3 Xrotation Yrotation Zrotation
										JOINT LeftForeArm
										{
											OFFSET 34.140198 0.000000 0.000000
											CHANNELS 3 Xrotation Yrotation Zrotation
											JOINT LeftHand
											{
												OFFSET 40.960209 0.000000 0.000000
												CHANNELS 3 Xrotation Yrotation Zrotation
												End Site
												{
													OFFSET 0 0 0
												}
											}
										}
									}
								}
							}
						}
						JOINT RightShoulder_virtual
						{
							OFFSET 0.000000 0.000000 0.000000
							CHANNELS 3 Xrotation Yrotation Zrotation
							JOINT RightShoulder
							{
								OFFSET -6.292450 5.785301 -0.669000
								CHANNELS 3 Xrotation Yrotation Zrotation
								JOINT RightShoulder_split
								{
									OFFSET -6.292450 5.785301 -0.669000
									CHANNELS 3 Xrotation Yrotation Zrotation
									JOINT RightArm
									{
										OFFSET -13.907140 -6.093903 1.965100
										CHANNELS 3 Xrotation Yrotation Zrotation
										JOINT RightForeArm
										{
											OFFSET -34.140198 0.000000 0.000000
											CHANNELS 3 Xrotation Yrotation Zrotation
											JOINT RightHand
											{
												OFFSET -40.960209 0.000000 0.000000
												CHANNELS 3 Xrotation Yrotation Zrotation
												End Site
												{
													OFFSET 0 0 0
												}
											}
										}
									}
								}
							}
						}
					}
				}
			}
		}
	}
}
MOTION
Frames: 11
Frame Time: 0.03333333
0.556481 108.494354 15.135563 0.000000 0.000000 0.000000 174.423456 -46.465056 171.416520 -12.270291 23.848113 22.556100 28.401767 3.951808 0.213267 -15.937406 14.101894 -21.440345 0.137825 -4.233068 -3.022416 0.000000 0.000000 0.000000 174.898018 -48.245431 171.423022 -29.270120 -12.088134 -8.928461 32.617001 -11.783593 1.547097 -7.089170 -10.810771 18.240760 0.385069 2.012075 -2.804948 0.000000 0.000000 0.000000 176.123996 -53.571154 172.861706 4.758820 2.098686 3.004172 -0.597032 0.352786 1.780182 0.250543 -0.531559 0.002716 0.000000 0.000000 0.000000 4.875042 1.599038 2.950525 -4.876383 15.215187 6.842030 -11.294761 7.875498 -0.895048 0.000000 0.000000 0.000000 3.846911 -0.376506 2.984753 1.193635 3.749276 -3.248909 -3.380183 -7.369725 0.549739 -19.701413 5.405179 -64.063158 19.674855 -13.355515 1.005941 0.000000 0.000000 0.000000 0.817082 -0.662728 4.412501 -3.496070 0.470816 19.388136 -16.662800 -9.698624 -5.177531 7.277492 31.209388 48.843574 7.968958 27.751030 -4.592969 0.000000 0.000000 0.000000 
1.179936 107.888176 11.788179 0.000000 0.000000 0.000000 175.287625 -44.885015 172.500211 -10.794129 24.551805 23.532049 30.460759 4.659923 0.110455 -14.389918 13.327271 -23.505891 -3.262546 -4.457075 -3.218468 0.000000 0.000000 0.000000 175.704431 -46.541841 172.462878 -30.668953 -10.824368 -7.636399 33.849178 -12.007269 1.297167 -5.692083 -10.770603 18.829151 0.081172 1.929323 -3.146973 0.000000 0.000000 0.000000 177.141981 -51.797457 174.592449 4.862611 0.880713 3.092310 -1.009762 -0.013609 2.086412 0.174404 -0.392016 -0.008638 0.000000 0.000000 0.000000 4.932536 1.340217 3.063665 -5.114923 14.694049 6.010853 -10.500454 8.830084 -0.903806 0.000000 0.000000 0.000000 3.728991 -0.656314 3.379817 0.947812 3.250168 -3.993082 -3.367268 -6.792461 0.289305 -17.259639 3.730963 -64.991190 17.833183 -12.515686 0.280393 0.000000 0.000000 0.000000 0.610467 -1.007965 4.629684 -3.820015 0.458064 19.616167 -15.115332 -9.811508 -4.893558 5.291872 31.989160 49.434044 6.365165 27.534583 -4.701582 0.000000 0.000000 0.000000 
1.654620 107.178795 8.112083 0.000000 0.000000 0.000000 176.679071 -43.894515 173.795680 -9.418776 23.929631 24.516383 32.883147 5.040607 0.014747 -12.567971 12.168900 -24.918446 -8.729830 -4.412187 -3.735362 0.000000 0.000000 0.000000 176.870207 -45.364740 173.445933 -31.295978 -9.844687 -5.900391 34.757880 -11.845342 0.896472 -5.296900 -10.476410 18.779530 0.295069 1.869105 -3.733465 0.000000 0.000000 0.000000 178.382589 -50.230198 176.123804 5.137182 -0.117794 3.352049 -1.399191 -0.348007 2.340632 0.125663 -0.264290 -0.030308 0.000000 0.000000 0.000000 5.004427 1.128677 3.112308 -5.524153 14.349010 5.392310 -9.944463 10.015217 -0.960808 0.000000 0.000000 0.000000 3.627120 -0.903824 3.658712 0.684161 2.627956 -4.173051 -3.096213 -6.365661 0.040340 -14.640130 1.842734 -66.015930 15.820844 -12.023924 -0.699334 0.000000 0.000000 0.000000 0.425525 -1.323281 4.693344 -4.021156 0.788065 19.651796 -13.256996 -9.988894 -4.282459 3.397902 32.728825 50.034496 4.924805 27.395957 -4.735754 0.000000 0.000000 0.000000 
1.857697 106.446732 4.051649 0.000000 0.000000 0.000000 178.465384 -42.991308 175.226345 -8.438553 22.111713 25.358460 35.175290 5.446646 -0.226080 -11.135661 10.922188 -25.262937 -15.643601 -3.972479 -4.635383 0.000000 0.000000 0.000000 178.342250 -44.675420 174.402501 -30.994261 -9.337922 -3.749565 35.452213 -11.537420 0.348366 -6.852039 -10.228736 17.238194 2.187413 1.778985 -4.535567 0.000000 0.000000 0.000000 179.848006 -48.789008 177.490156 5.622838 -0.719008 3.822047 -1.715723 -0.562299 2.462208 0.066049 -0.204349 0.004494 0.000000 0.000000 0.000000 5.085034 1.027101 3.057345 -5.967523 14.207363 5.069812 -9.902188 11.074750 -1.030563 0.000000 0.000000 0.000000 3.521271 -1.047398 3.717265 0.421564 1.968396 -3.841601 -2.460644 -5.824722 -0.146021 -12.307478 0.612437 -67.138007 13.772946 -12.188928 -1.801792 0.000000 0.000000 0.000000 0.272658 -1.515811 4.560609 -4.146538 1.645280 19.613117 -11.193420 -9.938907 -3.673649 1.650170 33.227412 50.724632 3.765600 27.451326 -4.705434 0.000000 0.000000 0.000000 
1.804502 105.648560 -0.038588 0.000000 0.000000 0.000000 -179.688535 -42.155863 176.517210 -8.117834 19.063452 25.872326 37.986958 5.901012 -0.805381 -9.957634 9.677307 -24.824196 -22.637494 -3.061731 -5.767191 0.000000 0.000000 0.000000 179.984637 -44.316248 175.363454 -29.993386 -9.258080 -1.463632 36.679475 -11.020962 -0.184013 -10.019412 -9.738883 13.935003 5.818224 1.619597 -5.514529 0.000000 0.000000 0.000000 -178.453322 -47.658833 178.848763 6.391034 -0.847536 4.486893 -1.966641 -0.626575 2.422400 0.020613 -0.248840 0.041373 0.000000 0.000000 0.000000 5.128269 1.053118 2.911167 -6.271898 14.248436 5.114747 -10.490999 11.935812 -1.154462 0.000000 0.000000 0.000000 3.372408 -1.044631 3.516794 0.181980 1.230657 -3.250294 -1.538639 -5.133933 -0.247615 -10.502038 0.624212 -68.363186 12.062765 -13.129991 -2.831993 0.000000 0.000000 0.000000 0.185946 -1.534985 4.258490 -4.257352 3.096653 19.554840 -9.064219 -9.651972 -3.209243 0.156117 33.491351 51.476663 2.975870 27.702605 -4.628152 0.000000 0.000000 0.000000 
1.490194 104.768486 -4.037432 0.000000 0.000000 0.000000 -177.959308 -41.281814 177.640748 -8.147430 15.240572 25.849643 42.055561 6.892413 -1.901881 -9.353650 8.922216 -23.107986 -27.847680 -1.807932 -7.080540 0.000000 0.000000 0.000000 -178.395744 -44.270056 176.273536 -28.842994 -9.616630 0.553641 38.691580 -10.032398 -0.689162 -13.270213 -8.483660 9.905262 9.412248 1.382015 -6.788340 0.000000 0.000000 0.000000 -176.599227 -46.788804 -179.738013 7.450783 -0.554087 5.260484 -2.198142 -0.559295 2.236783 0.017416 -0.378020 0.082384 0.000000 0.000000 0.000000 5.087551 1.196878 2.709007 -6.350610 14.425441 5.541645 -11.746789 12.490527 -1.515565 0.000000 0.000000 0.000000 3.156600 -0.897050 3.053769 -0.009688 0.274960 -2.800940 -0.490058 -4.234973 -0.228391 -9.273462 2.029329 -69.695127 11.046117 -14.522109 -3.585168 0.000000 0.000000 0.000000 0.162244 -1.362205 3.863075 -4.387118 5.059552 19.558230 -7.110843 -9.403074 -3.069006 -0.831864 33.580202 52.156783 2.550174 28.048805 -4.497499 0.000000 0.000000 0.000000 
1.070387 103.987534 -7.928991 0.000000 0.000000 0.000000 -176.503399 -40.432090 178.490342 -8.768611 11.236063 25.082902 47.564795 8.900551 -3.761114 -10.100161 8.895453 -19.543509 -30.569174 -0.467783 -8.583012 0.000000 0.000000 0.000000 -176.937580 -44.537440 177.041591 -27.826962 -10.301764 1.963439 41.099755 -8.089620 -1.262664 -15.193495 -6.157606 7.122039 10.683678 1.130664 -8.566636 0.000000 0.000000 0.000000 -174.496403 -46.134304 -178.110051 8.703884 0.037624 5.990620 -2.442045 -0.396656 1.937363 0.026393 -0.605601 0.147132 0.000000 0.000000 0.000000 4.884496 1.427103 2.433214 -6.228494 14.693142 6.309940 -13.506878 12.861902 -2.213684 0.000000 0.000000 0.000000 2.971846 -0.666127 2.385215 -0.147597 -0.907707 -2.866447 0.696088 -3.206835 0.074806 -8.174002 4.235578 -71.066896 11.019030 -16.116332 -3.905418 0.000000 0.000000 0.000000 0.170838 -1.012892 3.432950 -4.549534 7.266965 19.566895 -5.331935 -9.527587 -3.056900 -1.280177 33.561774 52.784392 2.482906 28.452181 -4.378177 0.000000 0.000000 0.000000 
0.415630 103.418938 -11.844702 0.000000 0.000000 0.000000 -175.195527 -40.143361 179.292794 -9.830153 7.201207 23.566094 53.680052 11.072290 -6.084842 -11.463118 8.817231 -15.845998 -32.397981 0.736797 -9.890253 0.000000 0.000000 0.000000 -175.542842 -45.477466 177.797679 -26.725767 -11.332153 2.739230 43.250773 -5.088673 -1.975132 -15.647755 -2.743003 6.146578 8.825508 1.002537 -10.905297 0.000000 0.000000 0.000000 -172.193850 -45.949189 -176.280953 10.060333 0.783261 6.588674 -2.742803 -0.182874 1.570765 0.062803 -0.835341 0.189771 0.000000 0.000000 0.000000 4.500293 1.709591 2.100894 -6.080645 14.992315 7.357171 -15.554800 13.150159 -3.329439 0.000000 0.000000 0.000000 2.836087 -0.374905 1.598201 -0.221423 -2.278879 -3.671911 1.847002 -2.567207 0.544286 -6.768164 6.302832 -72.257391 12.056129 -17.782254 -3.702514 0.000000 0.000000 0.000000 0.195868 -0.544716 2.983789 -4.728470 9.343747 19.409451 -3.851426 -10.147467 -2.811738 -1.128179 33.527384 53.443187 2.746575 28.933860 -4.314537 0.000000 0.000000 0.000000 
-0.113347 103.236076 -16.275358 0.000000 0.000000 0.000000 -173.905509 -40.558770 -179.754624 -11.378955 3.206679 21.364326 59.182435 13.176625 -8.631261 -12.896516 8.122625 -13.284871 -34.533341 1.633704 -10.860935 0.000000 0.000000 0.000000 -174.034531 -46.964408 178.806525 -25.229542 -12.869165 3.042746 44.262583 -1.683486 -2.767667 -15.675960 1.293990 6.123600 5.169371 1.073230 -13.609878 0.000000 0.000000 0.000000 -169.785266 -46.213456 -174.384292 11.429657 1.574067 6.920603 -3.072796 0.063851 1.192892 0.125340 -0.951715 0.234737 0.000000 0.000000 0.000000 4.046209 2.011826 1.745893 -6.070506 15.224362 8.572730 -17.501332 13.413467 -4.884491 0.000000 0.000000 0.000000 2.729048 -0.022826 0.836729 -0.263428 -3.434088 -5.122577 2.874970 -2.350747 1.149599 -4.818684 7.442446 -73.187895 13.824566 -19.516256 -3.022103 0.000000 0.000000 0.000000 0.234853 -0.049039 2.521192 -4.833598 10.862933 18.891473 -2.379345 -11.061269 -1.964158 -0.646567 33.398689 54.403099 3.326108 29.553501 -4.392030 0.000000 0.000000 0.000000 
-0.441949 103.675980 -21.305990 0.000000 0.000000 0.000000 -172.418741 -42.265737 -178.444484 -13.713338 -0.742228 18.605131 63.094958 15.065510 -11.057267 -13.515673 6.697512 -12.868699 -37.132286 2.073531 -11.254600 0.000000 0.000000 0.000000 -172.295552 -49.296112 -179.812352 -23.105604 -14.698842 3.153468 43.675378 1.670911 -3.420831 -16.386712 5.473339 5.995590 1.817272 1.263340 -16.236174 0.000000 0.000000 0.000000 -167.278819 -47.494253 -172.454613 12.766687 2.337696 6.978933 -3.428507 0.335303 0.867597 0.156475 -0.969167 0.223606 0.000000 0.000000 0.000000 3.636446 2.314995 1.406936 -6.377986 15.320750 9.806481 -19.053113 13.788234 -6.788849 0.000000 0.000000 0.000000 2.645386 0.390101 0.269083 -0.300650 -3.874463 -6.962657 3.807865 -2.915302 1.830374 -2.510117 7.203600 -73.835875 15.920432 -21.505984 -1.994212 0.000000 0.000000 0.000000 0.308063 0.393421 2.052686 -4.808880 11.569523 17.861606 -0.774966 -11.690665 -0.469872 -0.349248 33.029238 56.032167 4.281411 30.484347 -4.698769 0.000000 0.000000 0.000000 
-0.503706 104.644875 -26.917356 0.000000 0.000000 0.000000 -170.553894 -45.999507 -176.674973 -16.903492 -4.563791 15.293407 65.129105 16.554208 -12.763849 -12.902154 5.009793 -14.765947 -38.001410 1.851989 -11.186459 0.000000 0.000000 0.000000 -169.998491 -52.340071 -177.666416 -20.087735 -16.570736 3.483118 42.243600 4.648534 -3.860398 -17.915467 9.313935 4.767630 -0.593525 1.494052 -18.255443 0.000000 0.000000 0.000000 -164.787739 -50.274229 -170.490606 14.041384 3.040113 6.798444 -3.754403 0.646592 0.680847 0.161103 -0.776628 0.162391 0.000000 0.000000 0.000000 3.414630 2.601616 1.154011 -7.135601 15.222045 10.881588 -20.092945 14.158157 -8.848646 0.000000 0.000000 0.000000 2.543029 0.865358 0.019830 -0.272427 -3.209817 -8.909103 4.690187 -4.408360 2.344847 -0.524441 5.737576 -74.211904 17.830789 -23.773023 -0.767913 0.000000 0.000000 0.000000 0.466810 0.735515 1.621814 -4.629325 11.328879 16.314733 0.496857 -11.623270 1.688839 -0.429319 32.365476 58.313300 5.655336 31.669453 -5.268026 0.000000 0.000000 0.000000 
